<svg width="512" height="512" viewBox="0 0 512 512" fill="none" xmlns="http://www.w3.org/2000/svg">
<g clip-path="url(#clip0_1_11)">
<path d="M445.968 212.843C445.968 218.869 445.352 224.994 444.083 231.155C434.927 229.257 425.734 227.495 416.541 225.881C363.44 216.54 309.724 211.882 256.007 211.882C202.29 211.882 148.573 216.54 95.473 225.881C86.268 227.495 77.087 229.258 67.918 231.155C57.172 179.25 93.55 129.452 146.256 123.758C219.209 115.871 292.791 115.871 365.744 123.758C412.202 128.775 445.968 168.061 445.968 212.843Z" fill="#B27214"/>
<path d="M224.302 123.759C247.824 121.215 271.412 119.505 295.022 118.602C245.405 116.704 195.686 118.415 146.254 123.759C93.548 129.452 57.17 179.25 67.916 231.156C77.084 229.258 86.265 227.496 95.471 225.882C111.694 223.028 127.976 220.616 144.297 218.636C141.238 171.492 175.856 128.992 224.302 123.759Z" fill="#995C0D"/>
<path d="M431.365 290.147C431.365 462.795 256.006 502.759 256.006 502.759C256.006 502.759 80.647 462.795 80.647 290.147C80.647 277.454 81.99 265.747 84.541 254.977C87.055 244.379 90.74 234.705 95.472 225.882C148.573 216.541 202.289 211.883 256.006 211.883C309.723 211.883 363.44 216.541 416.54 225.882C421.272 234.705 424.957 244.379 427.471 254.977C430.022 265.747 431.365 277.454 431.365 290.147Z" fill="#F7B239"/>
<path d="M142.594 275.798C142.594 262.249 143.463 249.752 145.113 238.254C146.135 231.146 147.456 224.427 149.055 218.078C131.141 220.158 113.271 222.75 95.471 225.881C90.739 234.704 87.054 244.378 84.54 254.976C81.989 265.746 80.646 277.453 80.646 290.146C80.646 462.794 256.005 502.758 256.005 502.758C256.005 502.758 142.594 460.097 142.594 275.798Z" fill="#E09B2D"/>
<path d="M427.471 254.976C423.823 254.298 420.188 253.633 416.54 252.992C363.439 243.651 309.723 238.993 256.006 238.993C202.289 238.993 148.572 243.651 95.472 252.992C91.824 253.633 88.177 254.298 84.541 254.976C87.055 244.378 90.74 234.704 95.472 225.881C148.573 216.54 202.289 211.882 256.006 211.882C309.723 211.882 363.44 216.54 416.54 225.881C421.272 234.705 424.957 244.379 427.471 254.976Z" fill="#E09B2D"/>
<path d="M327.287 444.277C324.444 444.277 321.641 442.971 319.829 440.502C316.809 436.387 317.696 430.603 321.811 427.582C364.649 396.138 387.915 353.947 390.965 302.181C391.264 297.085 395.637 293.195 400.735 293.498C405.831 293.799 409.719 298.172 409.418 303.268C406.029 360.789 380.234 407.628 332.749 442.483C331.101 443.694 329.185 444.277 327.287 444.277Z" fill="white"/>
<path d="M412.02 203.103C408.175 203.103 404.587 200.686 403.274 196.847C397.079 178.711 380.657 165.652 361.439 163.578C356.364 163.03 352.694 158.471 353.243 153.397C353.792 148.323 358.342 144.651 363.424 145.2C389.751 148.042 412.26 165.97 420.766 190.872C422.416 195.703 419.838 200.956 415.007 202.606C414.018 202.943 413.011 203.103 412.02 203.103Z" fill="white"/>
<path d="M436.23 154.751C419.813 132.211 394.485 117.563 366.738 114.565C333.191 110.94 299.428 108.99 265.646 108.675C265.541 99.863 264.552 81.899 258.948 63.016C248.242 26.93 225.995 5.18101 194.613 0.119007C189.572 -0.693993 184.83 2.73301 184.016 7.77201C183.202 12.811 186.63 17.555 191.669 18.369C215.766 22.256 232.397 38.906 241.101 67.856C246.119 84.545 247.03 100.857 247.148 108.67C213.102 108.961 179.074 110.913 145.264 114.565C117.517 117.563 92.189 132.211 75.772 154.751C59.387 177.248 53.227 205.781 58.871 233.034C59.776 237.4 63.622 240.403 67.911 240.403C68.532 240.403 69.163 240.34 69.795 240.21C73.175 239.51 76.557 238.837 79.941 238.175C74.278 253.874 71.406 271.274 71.406 290.142C71.406 383.241 121.174 438.625 162.925 468.694C207.769 500.991 252.086 511.343 253.95 511.768C254.625 511.922 255.314 512 256.004 512C256.694 512 257.382 511.922 258.058 511.768C259.923 511.343 304.239 500.99 349.083 468.694C390.833 438.627 440.602 383.241 440.602 290.142C440.602 271.274 437.729 253.875 432.067 238.176C435.447 238.838 438.826 239.509 442.204 240.209C447.199 241.242 452.093 238.031 453.128 233.033C458.774 205.781 452.615 177.248 436.23 154.751ZM422.119 290.143C422.119 327.72 413.392 361.72 396.18 391.2C382.376 414.845 363.069 435.746 338.796 453.324C302.197 479.829 265.017 490.822 256.006 493.223C246.979 490.819 209.806 479.823 173.215 453.324C148.942 435.746 129.634 414.844 115.83 391.2C98.618 361.72 89.891 327.72 89.891 290.143C89.891 269.137 93.841 250.349 101.621 234.206C204.214 216.643 307.795 216.643 410.388 234.207C418.169 250.35 422.119 269.138 422.119 290.143ZM436.376 220.177C376.505 208.415 316.252 202.533 256.003 202.533C195.752 202.533 135.499 208.415 75.629 220.177C73.906 200.889 79.21 181.432 90.716 165.633C104.071 147.297 124.676 135.382 147.251 132.942C219.413 125.145 292.592 125.145 364.754 132.942C387.329 135.381 407.934 147.296 421.289 165.633C432.794 181.432 438.098 200.889 436.376 220.177Z" fill="#333333"/>
<path d="M399.384 281.621C404.488 281.621 408.626 277.483 408.626 272.379C408.626 267.275 404.488 263.137 399.384 263.137C394.28 263.137 390.142 267.275 390.142 272.379C390.142 277.483 394.28 281.621 399.384 281.621Z" fill="white"/>
<path d="M332.124 160.829C337.228 160.829 341.366 156.691 341.366 151.587C341.366 146.483 337.228 142.345 332.124 142.345C327.02 142.345 322.882 146.483 322.882 151.587C322.882 156.691 327.02 160.829 332.124 160.829Z" fill="white"/>
</g>
<defs>
<clipPath id="clip0_1_11">
<rect width="512.001" height="512.001" fill="white"/>
</clipPath>
</defs>
</svg>
